<svg id="Brand-Nestle" xmlns="http://www.w3.org/2000/svg" width="155.942" height="61.381" viewBox="0 0 155.942 61.381">
  <path id="Tracé_272" data-name="Tracé 272" d="M-2922.083,770.22a2.272,2.272,0,0,0-2.255-2.256h-3.313a2.257,2.257,0,0,0-2.184,2.256v34.6a2.21,2.21,0,0,0,2.184,2.255h3.313a2.271,2.271,0,0,0,2.255-2.255Zm4.226.916v1.691a1.236,1.236,0,0,0,1.2,1.2h22.832a1.9,1.9,0,0,0,1.9-1.887v-2.764a1.853,1.853,0,0,0-1.9-1.9s-22.055,2.185-22.761,2.255A1.379,1.379,0,0,0-2917.857,771.136Zm-18.461,35.937a8.983,8.983,0,0,1-9.3-9.089V784.1h-1.62a1.564,1.564,0,0,1-1.551-1.55v-2.326a1.564,1.564,0,0,1,1.551-1.55h1.62V770.15a2.136,2.136,0,0,1,2.184-2.114h3.242a2.151,2.151,0,0,1,2.184,2.185v8.456h5a1.579,1.579,0,0,1,1.62,1.55v2.326a1.579,1.579,0,0,1-1.62,1.55h-5v12.824a3.924,3.924,0,0,0,4.229,4.229h.494a1.714,1.714,0,0,1,1.689,1.691v2.535a1.714,1.714,0,0,1-1.689,1.691h-3.032Zm-38.9-14.656c0-7.328-4.368-14.727-14.234-14.727-9.231,0-14.375,7.188-14.375,14.727,0,8.1,5.567,15.151,14.375,15.151,6.131,0,12.05-3.171,13.177-8.455a1.281,1.281,0,0,0-.894-1.576,1.283,1.283,0,0,0-.375-.046h-4.369a2.293,2.293,0,0,0-1.831.988,6.4,6.4,0,0,1-5.708,2.747,6.6,6.6,0,0,1-6.624-6.271h18.392C-2975.919,794.954-2975.215,794.037-2975.215,792.417ZM-2996,789.246a6.351,6.351,0,0,1,6.554-5.637,6.4,6.4,0,0,1,6.553,5.637Zm104.853,3.171c0-7.328-4.369-14.727-14.3-14.727-9.161,0-14.306,7.188-14.306,14.727,0,8.1,5.5,15.151,14.375,15.151,6.06,0,12.05-3.171,13.178-8.455a1.363,1.363,0,0,0-1.34-1.622h-4.3a2.195,2.195,0,0,0-1.832.988,6.526,6.526,0,0,1-5.778,2.747,6.646,6.646,0,0,1-6.624-6.271h18.462a2.221,2.221,0,0,0,2.466-2.538Zm-20.858-3.171a6.4,6.4,0,0,1,6.554-5.637,6.47,6.47,0,0,1,6.624,5.637Z" transform="translate(3038.564 -767.467)" fill="#232d22" fill-rule="evenodd"/>
  <path id="Tracé_273" data-name="Tracé 273" d="M-3424.886,772.293h-59.685a2.451,2.451,0,0,0-2.466,2.436v.03l.211,23.464s-12.9-23.253-13.6-24.451a4.212,4.212,0,0,0-3.806-2.115h-4.933a2.452,2.452,0,0,0-2.466,2.436v34.417a2.5,2.5,0,0,0,2.466,2.466h3.171a2.5,2.5,0,0,0,2.466-2.466l-.211-24.17s12.966,23.535,13.529,24.452a4.357,4.357,0,0,0,3.875,2.184h4.51a2.5,2.5,0,0,0,2.467-2.466V778.141h54.47a1.668,1.668,0,0,0,1.689-1.691v-2.466a1.668,1.668,0,0,0-1.689-1.691Z" transform="translate(3511.63 -771.372)" fill="#232d22" fill-rule="evenodd"/>
  <path id="Tracé_274" data-name="Tracé 274" d="M-3430.685,922.531c2.608,0,4.58.916,5.286,2.537.28.846.986.987,1.831.987h3.594a1.362,1.362,0,0,0,1.269-1.268c0-4.158-4.934-7.892-11.98-7.892-7.258,0-11.979,3.453-11.979,8.949,0,4.228,3.311,6.694,7.4,7.822,1.832.493,5,1.268,6.554,1.691,1.689.423,3.169.917,3.169,2.327,0,2.255-2.325,3.029-4.932,3.029-2.467,0-4.932-1.057-5.638-2.818-.423-1.058-1.128-1.2-2.184-1.2h-3.665a1.4,1.4,0,0,0-1.339,1.41v.423c0,4.015,5.356,8.244,12.825,8.244,5.286,0,12.613-2.185,12.613-9.231,0-4.157-2.747-6.976-7.187-8.1-1.762-.423-5.989-1.48-6.835-1.761-1.692-.423-3.171-.916-3.171-2.326,0-2.114,1.973-2.82,4.369-2.82Zm-76.807,32.907c61.939-19.519,109.292,15.221,146.357-6.2-24.1,33.683-99.5-10.358-146.357,18.815V955.438Zm148.541-12.542a3.487,3.487,0,0,1,3.523-3.523,3.547,3.547,0,0,1,3.594,3.523,3.548,3.548,0,0,1-3.594,3.523A3.488,3.488,0,0,1-3358.951,942.9Zm3.523,2.889a2.816,2.816,0,0,0,2.889-2.889,2.817,2.817,0,0,0-2.889-2.891,2.8,2.8,0,0,0-2.818,2.891A2.8,2.8,0,0,0-3355.428,945.785Zm-.706-.846h-.633v-4.088h1.549c.986,0,1.409.353,1.409,1.2,0,.7-.423.986-1.057,1.055l1.2,1.833h-.705l-1.057-1.762h-.706v1.762Zm.706-2.326c.563,0,.986,0,.986-.634,0-.494-.423-.563-.846-.563h-.846v1.2Z" transform="translate(3507.775 -906.671)" fill="#232d22" fill-rule="evenodd"/>
</svg>
