<svg id="Brand-Stmichel" xmlns="http://www.w3.org/2000/svg" width="187.096" height="101.638" viewBox="0 0 187.096 101.638">
  <g id="Groupe_193" data-name="Groupe 193" transform="translate(-338.592 -953.425)">
    <path id="Tracé_275" data-name="Tracé 275" d="M431.626,953.425c-57.8,0-93.034,15.684-93.034,15.684v70.269s34.934,15.686,93.034,15.686,94.063-15.652,94.063-15.652V969.088s-36.256-15.663-94.063-15.663m88.456,81.923c-24.989,9.373-63.306,13.633-88.407,13.633-24.752,0-62.614-4.273-87.427-13.665V973c24.819-9.4,62.674-13.681,87.427-13.681,25.1,0,63.418,4.27,88.407,13.641Z" transform="translate(0 0)" fill="#a8ad8b"/>
    <path id="Tracé_276" data-name="Tracé 276" d="M544.306,1093.752c.061-5.028-.324-5.142-9.522-5.037-2.6,5.531-7.234,19.381-9.261,27.912a213.767,213.767,0,0,0-7.6-23.976c-1.4-3.59-1.749-4.318-6.461-4.121-1.935.077-5.4.311-6.614.5a16.008,16.008,0,0,1,1.126,3.806c.741,9.858-1.326,30.94-1.916,31.829,5.656.5,6.729-.13,6.853-2.551.152-3.073.971-16.71,1.1-25.408,3.136,8.253,7.841,22.494,8.928,26.59.46,1.757,2.334,1.588,4.054,1.588,1.48,0,3.091.054,3.524-1.588,1.083-4.1,5.791-18.336,8.93-26.59,0,0,.618,21.619.519,25.289s2.818,2.943,7.805,2.67c-.681-1.022-1.568-22.553-1.468-30.908" transform="translate(-120.007 -97.964)" fill="#232d22"/>
    <path id="Tracé_277" data-name="Tracé 277" d="M793.926,1105.465c.1-7.164-2.488-9.844-6.832-9.844-2.878,0-4.985,1.244-7.6,4.139.015-5.871.109-11.449.257-14.46.1-1.814-2.1-1.6-3.65-1.6-1.331,0-4.2.476-4.921,1.19a8.2,8.2,0,0,1,1.44,4.064c.759,8.359.024,26.388.313,29.717.2,2.244,1.1,2.819,7.375,2.512-.5-.771-.743-8.229-.8-16.345a4.258,4.258,0,0,1,4.382-3.274c2.628,0,3.12,2.373,3.112,5.824-.013,4.506.131,8.934.341,11.283.19,2.244,1.092,2.819,7.375,2.512-.7-1.077-.892-8.594-.787-15.716" transform="translate(-313.732 -94.475)" fill="#232d22"/>
    <path id="Tracé_278" data-name="Tracé 278" d="M955.641,1085.3c.095-1.815-2.1-1.6-3.648-1.6-1.335,0-4.2.476-4.926,1.19a8.033,8.033,0,0,1,1.432,3.976c.773,8.335.027,26.461.323,29.8.2,2.244,1.1,2.82,7.378,2.512-.966-1.488-.966-27.832-.559-35.881" transform="translate(-441.299 -94.476)" fill="#232d22"/>
    <path id="Tracé_279" data-name="Tracé 279" d="M669,1129.864c.081-1.817-2.1-1.6-3.647-1.6-1.33,0-3.636.469-4.352,1.182,2.05,2.665.789,18.271,1.176,21.654.258,2.241,1.1,2.818,7.376,2.511-.967-1.487-.79-18.45-.553-23.749" transform="translate(-233.831 -126.798)" fill="#232d22"/>
    <path id="Tracé_280" data-name="Tracé 280" d="M874.526,1126.758c-8.56,0-13.187,6.306-13.187,13.778,0,8.423,6.522,12.534,12.826,12.534a13.444,13.444,0,0,0,9.18-3.092l-.072-5.923c-1.024,2.359-4.2,4-7.043,3.974-3.089,0-6.372-1.63-6.88-4.89-.12-.793-.051-1.084.894-1.262,1.5-.277,13.852-2.406,13.852-2.406.974-6.774-2.8-12.713-9.569-12.713m3.376,8.117c.177,1.356-.269,2.094-1.9,2.433-1.59.328-4.808.97-6.244,1.252-.458.093-.791-.195-.853-.73-.483-4.191,2.044-6.609,4.93-6.609a3.959,3.959,0,0,1,4.068,3.655" transform="translate(-379.123 -125.71)" fill="#232d22"/>
    <path id="Tracé_281" data-name="Tracé 281" d="M667.078,1102.481a3.57,3.57,0,1,0,0-7.127,3.57,3.57,0,1,0,0,7.127" transform="translate(-235.496 -102.935)" fill="#232d22"/>
    <path id="Tracé_282" data-name="Tracé 282" d="M705.526,1139.773c0-5.336,2.345-8.118,6.068-8.11a9.877,9.877,0,0,1,5.12,1.607c1.267-3.069.212-6.512-5.213-6.512-9.323,0-13.325,6.306-13.325,13.778,0,8.423,5.017,12.533,11.19,12.533a15.516,15.516,0,0,0,8.588-2.474l.026-5.922a7.306,7.306,0,0,1-5.929,3c-3.4,0-6.525-2.215-6.525-7.9" transform="translate(-260.79 -125.71)" fill="#232d22"/>
    <path id="Tracé_283" data-name="Tracé 283" d="M464.2,1108.323c-.06-1.736-.077-3.8-.075-5.8.882.021,1.806.071,2.758,0,1.644-.117,2.074-.5,1.844-3.365a15.851,15.851,0,0,1-4.575.336c.025-1.8.066-3.365.112-4.37.063-1.335-1.543-1.167-2.685-1.167a5.878,5.878,0,0,0-3.207.872c1.274,1.652.813,11.579.813,14.914,0,4.242,2.433,6.278,6.881,6.278a6.4,6.4,0,0,0,4.3-1.326l0-3.112a3.965,3.965,0,0,1-2.96,1.126c-2.136,0-3.082-1.113-3.205-4.383" transform="translate(-86.872 -101.914)" fill="#232d22"/>
    <path id="Tracé_284" data-name="Tracé 284" d="M385.274,1099.974c0-2.868,2.42-3.407,5.045-3.407a14.047,14.047,0,0,1,7.471,2.181c1.387-3.348.2-7.1-6.979-7.1-8.4,0-11.992,4.686-11.992,9.768,0,9.229,13.669,9.021,13.669,15.167,0,2.026-1.734,4.077-5.451,4.077a10.426,10.426,0,0,1-8.827-4.4l-.078,5.8c2.031,1.858,5.372,3.344,9.9,3.344,6.853,0,11.192-3.822,11.192-10.008,0-10.172-13.953-9.558-13.953-15.421" transform="translate(-28.677 -100.245)" fill="#232d22"/>
    <path id="Tracé_285" data-name="Tracé 285" d="M701.766,1014.635a.982.982,0,0,0-1.914.441c-3.936.831-5.1,4.17-5.982,7.743-.087.327-2.4,1.754-5.026,4.1-.059.051-.635-.378-.63-.434.213-2.188-.939-4.113-1.958-4.089-.014,0-.023.008-.033.008-.485-2.515-2.659-6.6-3.964-5.939-.312.157-.439.592-.144,1.269.017.042-.007.074-.038.044-1.354-1.07-2.018,0-1.657,1,.025.076-.029.1-.066.072-1.291-1.147-1.948.058-1.614,1.435-.894-.156-1.315.463-1.043,1.747-1.888.452-.359,3.834,1.445,5a1.9,1.9,0,0,0,.414,1.08,12.074,12.074,0,0,1,2.105,2.9c.554,1.522-.157,2.058.168,4.379.422,2.984,5.049,4.45,5.927,5.549.816,1.034,2.266,3.917,1.856,4.513s-.721.229-1.005.732c-.093.173-1.354-.031-1.238,1.258,5.888-2.693,9.358-2.672,9.358-2.672a.732.732,0,0,0-.723-.582c-.407-.042-1.2.254-1.635.211s-.67-.464-1.025-.516-.774-.975-1.1-1.822c-.15-.375-.04-1.4.368-1.611,2.069-1.049,3.307-3.038,3.573-3.123,4.847-1.543,6.258-4.995,5.186-8.639-.654-2.241-2.441-3.884-2.657-6.183a3.365,3.365,0,0,1,1.017-3.177,6.416,6.416,0,0,1,2.478-1.206c.466.009,1.187.335,1.627.165a8.947,8.947,0,0,0-.248-.988,1.668,1.668,0,0,0-1.821-2.664M691.089,1044.5a8.713,8.713,0,0,1-1.847-3.2c-.133-.518.247-.923.588-.708a8.329,8.329,0,0,1,2.41,3.44c.228.645-.519,1.125-1.151.465m10.293-27.166a.571.571,0,0,1-.559-.562.555.555,0,0,1,.529-.578.543.543,0,0,1,.547.548.558.558,0,0,1-.517.591" transform="translate(-245.309 -43.852)" fill="#a8ad8b"/>
  </g>
</svg>
