<svg id="Brand-Mondelez" xmlns="http://www.w3.org/2000/svg" width="230.833" height="55.217" viewBox="0 0 230.833 55.217">
  <path id="Tracé_247" data-name="Tracé 247" d="M451.99,346.9c.187.06.373.122.56.179a4.413,4.413,0,0,1,3.181,4.566c-.008,7.919-.036,15.835-.031,23.75a12.658,12.658,0,0,0,.3,2.663,3.823,3.823,0,0,0,2.122,2.556c-.728,1.523-3.349,2.381-5.66,1.863a6.74,6.74,0,0,1-4.849-3.637,6.748,6.748,0,0,1-5.978,3.766,12.051,12.051,0,0,1-3.345-.326,7.3,7.3,0,0,1-5.1-4.443,16.68,16.68,0,0,1-.254-13.8,7.445,7.445,0,0,1,4.652-4.556,7.755,7.755,0,0,1,8.056,2.028c.445.42.834.9,1.362,1.469V351.817c0-2.717,1.031-4.1,3.621-4.854a.336.336,0,0,0,.078-.062Zm-5.585,23.916c-.021-.358-.031-.839-.088-1.316a6.541,6.541,0,0,0-1.342-3.572,2.472,2.472,0,0,0-3.957.008,5.951,5.951,0,0,0-.893,1.585,10.96,10.96,0,0,0-.437,5.1,6.023,6.023,0,0,0,1.005,3.029A2.676,2.676,0,0,0,443.6,376.8a3.088,3.088,0,0,0,2.217-2.147A10.982,10.982,0,0,0,446.405,370.817Z" transform="translate(-322.419 -346.901)" fill="#232d22" fill-rule="evenodd"/>
  <path id="Tracé_248" data-name="Tracé 248" d="M550.287,346.9a11,11,0,0,1,1.238.469,4.31,4.31,0,0,1,2.427,4.088q0,12.044-.013,24.095a15.137,15.137,0,0,0,.15,1.932,4.046,4.046,0,0,0,2.313,3.166c-.177.194-.327.386-.5.547a5.681,5.681,0,0,1-5.947,1.09c-3.054-.951-4.712-3.259-4.719-6.652q-.031-12.27-.005-24.543a4.343,4.343,0,0,1,3.352-4.074,2.243,2.243,0,0,0,.314-.117Z" transform="translate(-385.661 -346.901)" fill="#232d22" fill-rule="evenodd"/>
  <path id="Tracé_249" data-name="Tracé 249" d="M185.531,418.351c.175-.634.3-1.29.532-1.9a7.084,7.084,0,0,1,7.341-4.644,7.349,7.349,0,0,1,5.441,3.375c.606.866,1.084,1.824,1.606,2.746a5.784,5.784,0,0,0,4.855,3.171,7.27,7.27,0,0,0,4.54-1.176c.014.028.044.067.038.075-2.23,2.93-4.781,5.468-8.347,6.737a14.308,14.308,0,0,1-9.883.262,8.851,8.851,0,0,1-5.848-5.852c-.111-.357-.184-.733-.275-1.1Z" transform="translate(-185.531 -382.997)" fill="#a8ad8b" fill-rule="evenodd"/>
  <path id="Tracé_250" data-name="Tracé 250" d="M262.81,352.849c-1.844,1.4-2.461,3.427-2.873,5.53a34.739,34.739,0,0,0-.317,9.856,33.667,33.667,0,0,0,2.3,9.884,15.829,15.829,0,0,0,6.532,7.854,12.471,12.471,0,0,0,5.462,1.725c-.105.23-.183.424-.279.609a9.486,9.486,0,0,1-15.039,2.738,15.577,15.577,0,0,1-4.11-6.595,34.471,34.471,0,0,1-1.711-9.056,64.322,64.322,0,0,1,0-8.649,1.6,1.6,0,0,0-.094-.689c-2.959,3.994-5.922,7.988-8.915,12.024l-7.872-12.073-.114.016c-.047.523-.094,1.052-.14,1.577a48.607,48.607,0,0,1-2.226,11.236,8.935,8.935,0,0,1-4.645,5.572,4.758,4.758,0,0,1-6.254-1.591,24.529,24.529,0,0,1-1.337-2.305c2.81-1.282,4.254-3.6,5.381-6.16a32.882,32.882,0,0,0,2.426-9.75,22.414,22.414,0,0,0-.185-6.932,7.905,7.905,0,0,0-2.4-4.59,12.224,12.224,0,0,1,1.042-.979,6.968,6.968,0,0,1,4.973-1.132,6.758,6.758,0,0,1,5.043,3.106c1.642,2.352,3.173,4.782,4.747,7.18.6.912,1.189,1.834,1.785,2.753.087.135.187.262.31.435.132-.161.241-.28.333-.409q3.316-4.573,6.626-9.146a9.446,9.446,0,0,1,3.22-3.129,7.408,7.408,0,0,1,7.405.259,3.656,3.656,0,0,1,.587.461A4.587,4.587,0,0,1,262.81,352.849Z" transform="translate(-205.363 -349.121)" fill="#232d22" fill-rule="evenodd"/>
  <path id="Tracé_251" data-name="Tracé 251" d="M372.1,374.437a5.644,5.644,0,0,1,6.242-1.726,5.712,5.712,0,0,1,4.55,5.38l.385-.526a9.755,9.755,0,0,1,5.156-3.94,7.066,7.066,0,0,1,3.054-.22,4.6,4.6,0,0,1,3.8,3.365,13.864,13.864,0,0,1,.7,4.7c-.014,2.8-.088,5.605-.08,8.408a10.349,10.349,0,0,0,.311,2.508,3.84,3.84,0,0,0,2.167,2.46,5.09,5.09,0,0,1-3.415,1.958,7.054,7.054,0,0,1-5.13-1.311,5.434,5.434,0,0,1-2.22-4.61c0-3.119.021-6.238.011-9.359a3.655,3.655,0,0,0-.2-1.215,1.833,1.833,0,0,0-3.094-.738,4.5,4.5,0,0,0-1.452,3.282c-.036,3.282-.008,6.569-.014,9.853a3.782,3.782,0,0,1-2.22,3.653,4.166,4.166,0,0,1-4.472-.35,3.71,3.71,0,0,1-1.566-2.93c-.062-1.341-.013-2.689-.016-4.03,0-3.334-.033-6.67-.011-10A4.656,4.656,0,0,0,372.1,374.437Z" transform="translate(-289.336 -361.102)" fill="#232d22" fill-rule="evenodd"/>
  <path id="Tracé_252" data-name="Tracé 252" d="M342.367,385.836A11.867,11.867,0,1,1,330.2,373.981,11.849,11.849,0,0,1,342.367,385.836Zm-15.235.1c.06.793.078,1.591.185,2.378a6.53,6.53,0,0,0,1.251,3.4,2.5,2.5,0,0,0,3.966,0,5.264,5.264,0,0,0,.852-1.611,14.745,14.745,0,0,0,.35-6.929,6.406,6.406,0,0,0-1.4-3.3,2.217,2.217,0,0,0-3.564.039,6.752,6.752,0,0,0-.967,1.715A11.932,11.932,0,0,0,327.132,385.94Z" transform="translate(-259.589 -361.966)" fill="#232d22" fill-rule="evenodd"/>
  <path id="Tracé_253" data-name="Tracé 253" d="M641.1,372.495a4.442,4.442,0,0,1,1.492,3.282,6.793,6.793,0,0,1-1.523,4.572,23.477,23.477,0,0,1-4.294,4.264c-2.223,1.813-4.455,3.611-6.683,5.424-.024.015-.031.054-.057.109a.639.639,0,0,0,.177.057c1.854-.015,3.715.01,5.572-.062a8.545,8.545,0,0,0,4.909-1.663,4.147,4.147,0,0,1,.958,1.922,5.639,5.639,0,0,1-3.1,6.31,5.083,5.083,0,0,1-4.323-.311c-.966-.477-1.883-1.054-2.857-1.508a10.69,10.69,0,0,0-7.39-.347,11.764,11.764,0,0,0-4.346,2,7.021,7.021,0,0,1,.153-3.181,15.152,15.152,0,0,1,6.238-9.11c1.689-1.166,3.474-2.189,5.217-3.277.179-.111.368-.21.692-.394-.3-.016-.449-.033-.6-.036-2.188-.005-4.38-.005-6.571-.028a6.94,6.94,0,0,1-1.482-.127,3.074,3.074,0,0,1-2.461-3.176,3.308,3.308,0,0,1,2.725-3.007,5.463,5.463,0,0,1,.938-.075q6.648-.007,13.293-.008a9.053,9.053,0,0,0,.992-.055A2.816,2.816,0,0,0,641.1,372.495Z" transform="translate(-426.993 -361.141)" fill="#232d22" fill-rule="evenodd"/>
  <path id="Tracé_254" data-name="Tracé 254" d="M511.97,390.789a7.713,7.713,0,0,1-4.626,6.183,11.444,11.444,0,0,1-16.054-11.895,11.463,11.463,0,0,1,5.118-9.012,10.894,10.894,0,0,1,7.408-1.686,13.105,13.105,0,0,1,6.1,2.059,6.653,6.653,0,0,1,2.956,7.077c-.451,2.212-1.984,3.354-3.989,4.015a17.307,17.307,0,0,1-4.792.787c-1.438.051-2.883.01-4.427.01a5.287,5.287,0,0,0,1.525,2.406,6.165,6.165,0,0,0,3.94,1.575,12.29,12.29,0,0,0,4.808-.573A21.837,21.837,0,0,0,511.97,390.789Zm-12.76-6.075a2.465,2.465,0,0,0,.321.055c.731-.008,1.463.028,2.186-.042a4.53,4.53,0,0,0,1.425-.373,3.3,3.3,0,0,0,1.87-3.238,2.283,2.283,0,0,0-4.191-1.062A8.886,8.886,0,0,0,499.21,384.714Z" transform="translate(-355.62 -362.147)" fill="#232d22" fill-rule="evenodd"/>
  <path id="Tracé_255" data-name="Tracé 255" d="M578.559,388.525a5.547,5.547,0,0,0,3.005,3.217,6.116,6.116,0,0,0,2.9.591,34.622,34.622,0,0,0,3.647-.386,5.455,5.455,0,0,0,2.733-1.314c-.081.422-.12.723-.2,1.01a7.852,7.852,0,0,1-6.432,5.978,11.484,11.484,0,0,1-11.006-3.2,10.568,10.568,0,0,1-3.06-6.745,12.541,12.541,0,0,1,2.189-8.781,10.713,10.713,0,0,1,10.32-4.5,13.148,13.148,0,0,1,5.859,1.891A6.7,6.7,0,0,1,591.6,384a5.111,5.111,0,0,1-3.3,3.336,13.618,13.618,0,0,1-4.163.9C582.31,388.364,580.473,388.426,578.559,388.525Zm-.492-3.813a25.8,25.8,0,0,0,2.906-.021,3.268,3.268,0,0,0,2.849-2.779,2.372,2.372,0,0,0-1.176-2.619,2.176,2.176,0,0,0-2.746.539C578.577,381.184,578.331,382.938,578.067,384.712Z" transform="translate(-399.493 -362.163)" fill="#232d22" fill-rule="evenodd"/>
  <path id="Tracé_256" data-name="Tracé 256" d="M650.811,419.931c2.3,1.244,4.6,1.666,7.025.492a5.058,5.058,0,0,0,2.106-1.919c.49-.787.94-1.6,1.394-2.409a8.357,8.357,0,0,1,4.349-3.912,7.074,7.074,0,0,1,8.968,4.059,7.561,7.561,0,0,1-2.042,8.656,10.809,10.809,0,0,1-7.067,2.787,15.906,15.906,0,0,1-13.143-5.849C651.852,421.214,651.34,420.569,650.811,419.931Z" transform="translate(-444.412 -382.981)" fill="#a8ad8b" fill-rule="evenodd"/>
  <path id="Tracé_257" data-name="Tracé 257" d="M584.01,360.573q-3.163,0-6.323,0a2.776,2.776,0,1,1-.028-5.551q6.349-.011,12.7,0a2.855,2.855,0,0,1,2.8,2.8,2.818,2.818,0,0,1-2.824,2.751Z" transform="translate(-402.156 -351.417)" fill="#232d22" fill-rule="evenodd"/>
  <path id="Tracé_258" data-name="Tracé 258" d="M602.821,456.2a3.645,3.645,0,0,1-3.851,1.145,3.311,3.311,0,0,1-2.383-2,7.409,7.409,0,0,1-.132-6.17,3.417,3.417,0,0,1,5.906-.943c.1.111.207.212.35.355.055-.215.088-.4.142-.578a2,2,0,0,1,2.1-1.392,1.936,1.936,0,0,1,1.694,1.852c.026,2.4.047,4.8.005,7.206a1.921,1.921,0,0,1-1.588,1.845,2.031,2.031,0,0,1-2.1-1.1C602.925,456.354,602.878,456.286,602.821,456.2Zm-.226-3.966a17.582,17.582,0,0,0-.489-1.844,1.174,1.174,0,0,0-1.129-.834,1.249,1.249,0,0,0-1.171.857,4.646,4.646,0,0,0-.041,3.621,1.228,1.228,0,0,0,1.218.855,1.185,1.185,0,0,0,1.176-.837C602.355,453.481,602.446,452.877,602.6,452.235Z" transform="translate(-413.829 -402.374)" fill="#232d22" fill-rule="evenodd"/>
  <path id="Tracé_259" data-name="Tracé 259" d="M495.263,456.192a3.8,3.8,0,0,1-6.372-1.093,7.6,7.6,0,0,1,.005-5.955,3.417,3.417,0,0,1,5.885-.93c.112.117.223.23.353.37a6.7,6.7,0,0,1,.243-.829,1.945,1.945,0,0,1,3.722.777c.018,1.445.008,2.886.008,4.331,0,.86,0,1.725-.005,2.588a1.945,1.945,0,0,1-3.693.984Zm-3.482-3.976c.14.632.229,1.238.417,1.809a1.2,1.2,0,0,0,1.21.859,1.213,1.213,0,0,0,1.183-.831,4.558,4.558,0,0,0-.05-3.665,1.23,1.23,0,0,0-1.129-.834,1.206,1.206,0,0,0-1.171.852A16.584,16.584,0,0,0,491.781,452.216Z" transform="translate(-353.983 -402.371)" fill="#232d22" fill-rule="evenodd"/>
  <path id="Tracé_260" data-name="Tracé 260" d="M467.938,449.835c.355-.391.619-.72.927-1.015a3.535,3.535,0,0,1,2.6-1.052,1.869,1.869,0,0,1,1.943,1.4,10.964,10.964,0,0,1,.37,2.44c.057,1.443.018,2.886.013,4.331a1.867,1.867,0,1,1-3.725-.016v-4.479c0-.624-.22-1-.637-1.111a.97.97,0,0,0-1.153.648,3.114,3.114,0,0,0-.321,1.225c-.044,1.274,0,2.557-.021,3.831a1.88,1.88,0,0,1-1.9,1.891,1.86,1.86,0,0,1-1.823-1.9c-.005-.549-.021-1.1-.021-1.642q0-2.642.021-5.274a1.863,1.863,0,0,1,3.725-.041C467.943,449.3,467.938,449.524,467.938,449.835Z" transform="translate(-340.576 -402.746)" fill="#232d22" fill-rule="evenodd"/>
  <path id="Tracé_261" data-name="Tracé 261" d="M382.423,449.841c.363-.4.629-.735.937-1.026a3.507,3.507,0,0,1,2.455-1.044,1.977,1.977,0,0,1,2.173,1.639,10.433,10.433,0,0,1,.276,2.161c.043,1.458.014,2.919.013,4.38a1.866,1.866,0,1,1-3.726.016c0-1.44.013-2.883.02-4.328a1.249,1.249,0,0,0-.048-.586c-.158-.267-.37-.611-.624-.679a.957.957,0,0,0-.863.269,3.251,3.251,0,0,0-.585,1.477c-.082,1.256-.025,2.52-.027,3.782a1.9,1.9,0,0,1-1.86,2.03,1.879,1.879,0,0,1-1.868-2.013q0-3.361,0-6.719a1.864,1.864,0,1,1,3.726-.013Z" transform="translate(-293.007 -402.746)" fill="#232d22" fill-rule="evenodd"/>
  <path id="Tracé_262" data-name="Tracé 262" d="M575.735,449.765a3.347,3.347,0,0,1,.472-.564,8.28,8.28,0,0,1,1.726-1.21,2.3,2.3,0,0,1,3.419,2.01,12.385,12.385,0,0,1,.121,1.632c.018,1.51.031,3.021.008,4.527a1.841,1.841,0,0,1-1.5,1.746,1.873,1.873,0,0,1-2.038-1.083,1.923,1.923,0,0,1-.135-.72c-.013-1.51,0-3.02-.013-4.53a1.976,1.976,0,0,0-.1-.681.819.819,0,0,0-1.4-.321,2.274,2.274,0,0,0-.673,1.66c-.008,1.292.008,2.588-.008,3.883a1.845,1.845,0,0,1-1.551,1.8,1.869,1.869,0,0,1-2.06-1.275,2.1,2.1,0,0,1-.075-.586q0-3.485,0-6.97a1.847,1.847,0,0,1,3.693-.023c0,.228,0,.453,0,.679Z" transform="translate(-400.518 -402.746)" fill="#232d22" fill-rule="evenodd"/>
  <path id="Tracé_263" data-name="Tracé 263" d="M556.137,452.661a5.315,5.315,0,0,1-10.63-.083,5.315,5.315,0,1,1,10.63.083Zm-3.668.042a5.712,5.712,0,0,0-.606-2.463,1.083,1.083,0,0,0-2.01-.021,1.967,1.967,0,0,0-.2.4,6.194,6.194,0,0,0,0,4.092,1.242,1.242,0,0,0,1.192.966,1.2,1.2,0,0,0,1.191-.951C552.241,454.07,552.329,453.379,552.469,452.7Z" transform="translate(-385.821 -402.759)" fill="#232d22" fill-rule="evenodd"/>
  <path id="Tracé_264" data-name="Tracé 264" d="M423.145,453.724c.468,1.834,3.164,2.347,5.448,1.1a3.47,3.47,0,0,1-2.062,2.752,5.152,5.152,0,0,1-7.093-3.536,5.292,5.292,0,0,1,3.49-6.416,5.646,5.646,0,0,1,4.841.819A2.87,2.87,0,0,1,429,451.571a2.067,2.067,0,0,1-1.637,1.7c-1.074.238-2.186.318-3.282.451A8.041,8.041,0,0,1,423.145,453.724Zm-.25-1.648a10.756,10.756,0,0,0,1.3-.01,1.481,1.481,0,0,0,1.262-1.231,1.055,1.055,0,0,0-.553-1.212,1.007,1.007,0,0,0-1.281.339A3.7,3.7,0,0,0,422.895,452.076Z" transform="translate(-315.591 -402.817)" fill="#232d22" fill-rule="evenodd"/>
  <path id="Tracé_265" data-name="Tracé 265" d="M628.842,450.455a2.317,2.317,0,0,1-2.5.759,2.738,2.738,0,0,1-2.256-2.919q-.016-5.545,0-11.089a1.861,1.861,0,1,1,3.722.044q.008,5.494,0,10.991A2.16,2.16,0,0,0,628.842,450.455Z" transform="translate(-429.535 -396.103)" fill="#232d22" fill-rule="evenodd"/>
  <path id="Tracé_266" data-name="Tracé 266" d="M363.767,436.185a2.648,2.648,0,0,1,3.665-.228,2.962,2.962,0,0,1,1.083,2.554q.013,5.428,0,10.853a1.864,1.864,0,1,1-3.724-.026V438.384A2.193,2.193,0,0,0,363.767,436.185Z" transform="translate(-284.701 -396.105)" fill="#232d22" fill-rule="evenodd"/>
  <path id="Tracé_267" data-name="Tracé 267" d="M409.484,453.05a2.959,2.959,0,0,1-4.875,1.075,3.192,3.192,0,0,1-1.186-2.572c0-1.427-.011-2.854-.021-4.279,0-.15-.016-.3-.022-.433-1.013-.147-1.189-.282-1.183-.888.007-.575.2-.718,1.206-.863,0-.383-.005-.777,0-1.171a1.888,1.888,0,0,1,1.838-1.9,1.925,1.925,0,0,1,1.91,1.9c.008.378,0,.759,0,1.233.463,0,.9,0,1.342,0,.659,0,.94.244.949.808.007.588-.275.834-.971.839h-1.32v.653c0,1.113.04,2.227-.01,3.336a2.11,2.11,0,0,0,2,2.233C409.237,453.03,409.334,453.035,409.484,453.05Z" transform="translate(-306.084 -399.823)" fill="#232d22" fill-rule="evenodd"/>
  <path id="Tracé_268" data-name="Tracé 268" d="M516.081,446.844c-1.026-.163-1.207-.311-1.181-.927.021-.554.231-.7,1.2-.816,0-.381,0-.775,0-1.165a1.888,1.888,0,0,1,1.823-1.919,1.928,1.928,0,0,1,1.922,1.881c.013.393,0,.79,0,1.248.528,0,1-.01,1.479,0a.821.821,0,0,1,0,1.642c-.461.016-.928.005-1.453.005-.007.2-.023.373-.023.543,0,1.145.041,2.292-.01,3.435a2.105,2.105,0,0,0,1.984,2.243c.109.018.218.031.331.05a2.92,2.92,0,0,1-3.553,1.795,3.442,3.442,0,0,1-2.482-3.347q-.008-2.118-.023-4.232C516.1,447.134,516.089,446.986,516.081,446.844Z" transform="translate(-368.79 -399.822)" fill="#232d22" fill-rule="evenodd"/>
  <path id="Tracé_269" data-name="Tracé 269" d="M447.416,449.455c.342-.415.619-.788.938-1.119a2.147,2.147,0,1,1,2.142,3.632,1.24,1.24,0,0,1-1.772-1.015.989.989,0,0,0-.065-.29c-.1-.155-.217-.381-.357-.409a.566.566,0,0,0-.492.228,4.8,4.8,0,0,0-.43,1.5c-.057,1.373-.018,2.753-.02,4.129a1.881,1.881,0,0,1-1.372,1.808,1.822,1.822,0,0,1-2.052-.845,2.222,2.222,0,0,1-.258-1.036c-.022-2.238.022-4.479-.025-6.717a1.961,1.961,0,0,1,1.829-2.023,1.877,1.877,0,0,1,1.88,1.948A1.11,1.11,0,0,0,447.416,449.455Z" transform="translate(-329.149 -402.759)" fill="#232d22" fill-rule="evenodd"/>
  <path id="Tracé_270" data-name="Tracé 270" d="M534.458,453.9c0-.977,0-1.953,0-2.935a1.85,1.85,0,0,1,1.793-1.873,1.8,1.8,0,0,1,1.922,1.741c.036,2.158.031,4.316,0,6.468a1.866,1.866,0,0,1-3.715-.163c0-.034,0-.067,0-.1Z" transform="translate(-379.673 -403.759)" fill="#232d22" fill-rule="evenodd"/>
  <path id="Tracé_271" data-name="Tracé 271" d="M538.166,440.2A1.76,1.76,0,0,1,536.339,442a1.814,1.814,0,0,1-1.833-1.826,1.858,1.858,0,0,1,1.823-1.855A1.819,1.819,0,0,1,538.166,440.2Z" transform="translate(-379.7 -397.766)" fill="#232d22" fill-rule="evenodd"/>
</svg>
