<svg id="Brand-Milka" xmlns="http://www.w3.org/2000/svg" width="170.76" height="89.871" viewBox="0 0 170.76 89.871">
  <path id="Tracé_286" data-name="Tracé 286" d="M166.5,1423.007c-1.1,3.317-2.459,6.768-5.576,7.2-3.054.422-6.117-.712-5.515-7.243.61-6.6,7.2-22.425,6.718-38.753-.289-9.811-5.133-10.716-10.116-4.873-4.509,5.288-8.838,24.934-8.8,27.21.049,2.673-2.485,5.915-4.965,5.871-1.826-.031-3.217-1.54-3.523-6.867-.464-8.072,13.15-49.553,29.668-47.785,9.223.987,8.373,14.023,8.491,15.958s1.489,1.863,1.606.941c.319-2.527,8.342-7.477,11.029-.406.611,1.607,1.4.823,1.505.145.355-2.372,9.918-19.124,20.556-17.316,6.974,1.186-.617,20.1-1.9,23.417-5.263,13.633-2.972,32.986-.173,40.193,3.585,9.226-10.477,10.994-12.607,2.077-1.117-4.673-4.912-13.209,1.764-31.481,4.469-12.231-1.6-12.906-4.364-8.321-3.556,5.887-5.142,22.241-5.333,28.049-.6,18.045-11.162,14.241-10.892,7.408.264-6.684,4.9-25.218,4.479-26.789-.56-2.078-3.581-5.166-6.488.591-2.86,5.664-3.419,18.941-4.278,25.187l-1.289,5.588Zm47.358-51.049c1.7,1.04,5.439-.233,6.967-2.728s1.169-5.641-1.192-6.689c-1.821-.809-4.554.52-6.082,3.014S212.156,1370.917,213.854,1371.958Z" transform="translate(-134.711 -1340.414)" fill="#232d22" fill-rule="evenodd"/>
  <path id="Tracé_287" data-name="Tracé 287" d="M522.1,1309.579c.918-3.019,3.383-5.894,6.226-6,2.514-.094,3.689,3.753,2.878,6.119-6.164,18.018,4.189,10.407,4.315-1.155.057-5.209-.141-20.9,6.96-31.285,2.407-3.516,7.958-3.667,8.168,2.615.11,3.278-2.328,7.494-5.128,15.252a33.045,33.045,0,0,0-1.767,11.154c.45,4.68,5.8,4.455,7.307-1.821a70.224,70.224,0,0,0,2.294-11.542c1.5-16.007,9.131-26.468,13-25.31,9.592,2.873-5.828,19.493-3.621,23.4,3.451-4.555,12.752-9.9,15.463-3.879,3,6.67-7.446,16.349-9.437,17.3.215.932,1.39,1.071,1.8,1.794s2.253,2.732,3.26,2.44c1.382-.4,3.956-7.7,4.157-11.1.529-8.975,18.054-28.927,23.769-20.425,3.966,5.9-9.549,9.292-13.4,15.017-5.851,8.705,3.646,12.153,6.871,3.574,3.1-8.235,4.84-12.4,8.885-11.527,5.439,1.171-.482,8.943-.256,11.344s3.073,3.056,5.535.609,6.575-7.986,8.316-7.225c4.91,2.142-8.711,18.016-15.365,19.967-6.438,1.888-5.495-2.909-6.761-2.373s-4.319,6.473-9.894,7.835c-5.652,1.38-6.438-2.037-7.508-1.71s-.664,5.291-8.131,6.611c-7.7,1.36-6.666-6.238-7.257-7.738-.817-2.078-2.609-1.036-2.807.236s-2.719,11.664-5.137,11.811c-2.529.153-2.4-2.965-3-3.808-.685-.958-1-.778-1.4.319-.754,2.055-4.6,9.154-9.138,9.7-4.047.493-4.2-2.96-4.709-3.415s-1.164-.8-1.94.446-5.465,10.218-10.2,10.44c-8.495.4-5.1-18.633-2.349-27.675Zm45.536-13.24c-1.9-1.524-6.442,1.152-7.171,5.818C564.048,1303.134,569.543,1297.864,567.639,1296.339Z" transform="translate(-447.985 -1267.516)" fill="#232d22" fill-rule="evenodd"/>
</svg>
