<svg id="Brand-Lu" xmlns="http://www.w3.org/2000/svg" width="86.717" height="133.315" viewBox="0 0 86.717 133.315">
  <path id="Tracé_310" data-name="Tracé 310" d="M-1090.1-78.545c46.873,9.611,69.426,4.814,73.157-12.959,5.531,2.065,10.128,1.815,13.559-1.233-6.846,22.62-40.011,27.933-86.718,16.656v-2.465Z" transform="translate(1090.104 203.675)" fill="#a8ad8b" fill-rule="evenodd"/>
  <path id="Tracé_311" data-name="Tracé 311" d="M-1011.12-2001.394v-4.3a3.1,3.1,0,0,0,1.517-.4,2.809,2.809,0,0,0,1.131-1.116,3.164,3.164,0,0,0,.4-1.516,2.991,2.991,0,0,0-.418-1.533,2.686,2.686,0,0,0-1.133-1.115,3.058,3.058,0,0,0-1.5-.4v-100.177h7.746v106.29C-1004.573-2002.011-1007.838-2001.195-1011.12-2001.394Zm0-4.8a2.605,2.605,0,0,0,1.266-.334,2.58,2.58,0,0,0,.949-.949,2.59,2.59,0,0,0,.334-1.249,2.556,2.556,0,0,0-.351-1.283,2.227,2.227,0,0,0-.949-.933,2.6,2.6,0,0,0-1.25-.334v.951a2.409,2.409,0,0,1,.633.1.841.841,0,0,1,.416.317.809.809,0,0,1,.15.466.847.847,0,0,1-.266.634.934.934,0,0,1-.667.3.8.8,0,0,1,.266.167,3.535,3.535,0,0,1,.483.65l.4.648h-.634l-.3-.516a2.522,2.522,0,0,0-.483-.7v2.067Zm0-2.7a.91.91,0,0,0,.468-.134.452.452,0,0,0,.165-.366.393.393,0,0,0-.083-.267.449.449,0,0,0-.216-.165,3,3,0,0,0-.334-.05v.983Zm0-103.058v100.175a3.05,3.05,0,0,0-1.482.4,2.749,2.749,0,0,0-1.149,1.114,3.159,3.159,0,0,0-.4,1.533,3.182,3.182,0,0,0,.4,1.516,2.885,2.885,0,0,0,1.116,1.116,3.134,3.134,0,0,0,1.516.4v4.3c-4.4-.251-8.828-2.349-8.412-1.916-.2,9.246-5.464,14.526-13.792,17.141v-18.057c.384.016.784.033,1.183.033,9.827,0,16.624-5.663,16.624-19.273v-73.04h-13.526c2.716,2.1,2.716,3.731,2.716,5.914v67.128c0,5.564-2.282,8.38-5.763,8.38a5.8,5.8,0,0,1-1.233-.134v-96.729Zm0,100.675a2.69,2.69,0,0,0-1.248.334,2.43,2.43,0,0,0-.951.933,2.73,2.73,0,0,0-.333,1.283,2.6,2.6,0,0,0,.333,1.248,2.469,2.469,0,0,0,.951.949,2.59,2.59,0,0,0,1.248.334v-2.065c-.016-.033-.05-.05-.065-.067a.624.624,0,0,0-.418-.117h-.316v1.4h-.533v-3.281h1.332v-.952Zm0,1.4h-.8v.983h.8Zm-55.151-5.213h8.845c2.082,0,3.331,0,4.981-2.05v11.645h-13.826v20.438c12.759,1.466,24.452,1.565,32.947-1.116v-18.057c-9.194-.433-15.441-6.179-15.441-19.239v-67.128c0-2.333,0-4.3-2.349-5.914h13.26v73.041c0,4.881,1.748,7.646,4.53,8.246v-96.728h-32.947v96.862Zm-.767-81.421v81.421h.767v-96.862h-23.82V-1988.9c8.012,1.583,16.108,2.966,23.82,3.848v-20.438h-11.777v-85.1c0-2.033,0-3.265-2.066-5.914Z" transform="translate(1090.091 2111.948)" fill="#232d22" fill-rule="evenodd"/>
</svg>
