<svg id="Brand-Pepito" xmlns="http://www.w3.org/2000/svg" width="157.604" height="93.683" viewBox="0 0 157.604 93.683">
  <g id="Groupe_196" data-name="Groupe 196" transform="translate(-383.44 -941.707)">
    <path id="Tracé_288" data-name="Tracé 288" d="M414.475,988.891s-5.906-6.474-5.906-7.221-5.137-27.384,31.331-30.621,48.538,1.245,56.242,7.967,17.207,15.933,6.934,26.638l-5.393-1.991,1.8-12.2-11.3-3.735-7.448-9.46-12.327,2.739-12.327-6.473L444.523,962l-11.043-2.738-8.732,8.216-10.273,3.734,3.6,8.464-3.6,9.212Z" fill="#e6e8d3" fill-rule="evenodd"/>
    <path id="Tracé_289" data-name="Tracé 289" d="M502.79,982.561l-3.173-3.628,5.972-5.79c-.637-2.8-2.664-5.594-6.222-8.587l-8.717-1.369-3.808-6.466a52.274,52.274,0,0,0-7.965-2.771l-8.483,2.971c-.789-.61-4.213-3.271-6.337-5.133-2.3-.115-4.741-.154-7.343-.1-2.237.043-4.364.146-6.4.3l-5.517,4.862-7.949-2.876a60.518,60.518,0,0,0-8.154,2.5l-4.875,7.089c-.766.156-4.417.889-8.78,1.542a22.534,22.534,0,0,0-5.829,9.562l7.28,5.845-3.517,5.681a37.762,37.762,0,0,0,4.68,4.4l.479.4.519.429,7.369-12.672-8.1-6.837,10.82-2,6.477-8.721,11.423,4.071,10.043-9.2,10.211,9.015,13-3.882,4.683,8.73,11.21,1.258-7.324,7.205,9.224,9.377a36.4,36.4,0,0,0,5.1-5.193Z" fill="#232d22" fill-rule="evenodd"/>
    <path id="Tracé_290" data-name="Tracé 290" d="M481.974,998.226a4.349,4.349,0,1,0-4.484-4.347,4.392,4.392,0,0,0,4.484,4.347Z" fill="#232d22" fill-rule="evenodd"/>
    <path id="Tracé_291" data-name="Tracé 291" d="M479.078,968.892a18.07,18.07,0,0,1-7.427.681,42.222,42.222,0,0,0-13.815-2.5,56.114,56.114,0,0,0-16.85,2.656,18.07,18.07,0,0,1-7.427-.681,12.914,12.914,0,0,0-1.15,10.881,11.223,11.223,0,0,0,10.721,6.806,55.476,55.476,0,0,0-6.934,4.109l.553,2.144a78.125,78.125,0,0,1,10.949-5.8l12.359,1.2s3.426-.106,4.4-.733a67.89,67.89,0,0,1,10.729,5.3l.634-2.206a52.441,52.441,0,0,0-4.558-3.079c3.659-.567,7.161-3.466,8.969-7.9a12.912,12.912,0,0,0-1.15-10.88Z" fill="#a8ad8b" fill-rule="evenodd"/>
    <path id="Tracé_292" data-name="Tracé 292" d="M467.628,970.084c2.208,1.3,2.421,5.61,2.128,7.964-1.086,8.711-9.639,9-9.716,8.931a8.089,8.089,0,0,0-2.287-2.18c.924-2.1,2.61-4.883,5.059-5.645a.459.459,0,0,0,.16-.686,4.382,4.382,0,0,0-1.926-1.182c-.36-.056-.482.19-.562.419a1.114,1.114,0,0,1-.8,1.181,9.452,9.452,0,0,1-3.452.763c-2.127,0-5.217,0-6.422-2.363a.61.61,0,0,0-.8-.191c-.281.686-1.646.877-1.244,1.791.521.725,1.482-.207,2.408.954a8.477,8.477,0,0,1,2.127,3.924c-2.763,1.681-4.82.527-4.906.427-2.089-2.417-3.513-5.011-3.122-8.087.241-1.677,1.439-4.727,1.655-5.951,1.877-.036,11.516-1.995,17.691-.946l4.014.877Z" fill="#e6e8d3" fill-rule="evenodd"/>
    <path id="Tracé_293" data-name="Tracé 293" d="M452.421,972.392a3.159,3.159,0,0,1,.279,2.292c-.481.344-.5-1.52-2.161-.572a1.088,1.088,0,0,1-.387-1.629c.572-1.176,1.637-.791,2.269-.091Z" fill="#a8ad8b" fill-rule="evenodd"/>
    <path id="Tracé_294" data-name="Tracé 294" d="M462.209,972.33c.04.916.932,1.294-.112,1.866-.32.3-.651-.457-1.771-.337-.394.043-.966,1.026-1.007.568.4-.762.482-1.906,1.245-2.325.557-.323,1.445-.267,1.645.228Z" fill="#a8ad8b" fill-rule="evenodd"/>
    <path id="Tracé_295" data-name="Tracé 295" d="M453.937,976.819c-.37-.238-.216-.49.16-.793.583-.468,1.411-1.062,2.251-.636a7.553,7.553,0,0,1,1.4.922.462.462,0,0,1,.036.686c-.273.188-.533.08-.883,0a6.33,6.33,0,0,0-1.321-.112c-.938-.009-1.318.147-1.643-.063Z" fill="#a8ad8b" fill-rule="evenodd"/>
    <path id="Tracé_296" data-name="Tracé 296" d="M453.076,980.724s3.538.99,5.278.006c0,0-1.625,2.833-2.93,3.254,0,0-2.374.3-2.348-3.26Z" fill="#fff" fill-rule="evenodd"/>
    <path id="Tracé_297" data-name="Tracé 297" d="M461.861,989.89a2.352,2.352,0,0,0-.381-2.593,7.675,7.675,0,0,0-7.182-4.818,7.788,7.788,0,0,0-5.091,1.879c-1.732-1.135-3.308-.149-4.11,1.355a13.782,13.782,0,0,0-1.759,5.21,11.276,11.276,0,0,0,1.356,7.256c.44-.117,1.035-.282,1.659-.457-2.148-3.008-1.315-7.388-1.156-8a17.277,17.277,0,0,1,1.411-3.334c.759-1.394,2.005-1.114,1.758.252-.35,1.945-.874,2.432.02,3.052s1.634,1.094,3.282-.008c1.571-1.051,3.581-2.365,4.47-2.957,1.445-.963,2.4.368,1.393,1.175-.651.52-3.655,2.746-4.339,3.294-.919.736-.161,1.663.781.915.971-.771,4.2-3.122,4.888-3.657,1.069-.835,2.074.332,1.026,1.24-.7.6-3.587,2.936-4.179,3.439-.986.84-.048,1.564.9.8.644-.516,2.829-2.234,3.391-2.733.9-.8,1.934.213.751,1.288l-3.9,3.532v1.887c3.722-3.429,4.915-4.523,4.934-4.542,1.323-1.217,1.142-2.774.077-3.474Z" fill="#a8ad8b" fill-rule="evenodd"/>
    <path id="Tracé_298" data-name="Tracé 298" d="M424.258,999.311l8.909-2.459v-6.816l-8.937,2.728.028,6.547Z" fill="#232d22" fill-rule="evenodd"/>
    <path id="Tracé_299" data-name="Tracé 299" d="M502.309,961.12c-9.163-7.731-20.957-12.147-35.846-13.417l-.478-.747c-2.384-3.729-5-5.249-9.021-5.249a10.166,10.166,0,0,0-9.1,5.3l-.463.781c-24.574,2.422-42.126,14.042-42.126,28.89,0,7.447,5.346,13.037,10.349,15.785l.178.1.188-.076,2.028-.813.632-.254-.519-.429-.479-.4c-2.885-2.373-9.639-7.93-8.608-15.2.033-.229,3.746-22.853,47.666-23.7,21.307-.41,31.963,5.078,39.577,10.5,6.3,4.488,9.325,8.463,9.513,12.509.186,4.007-2.392,8.157-8.115,13.06l6.411-1.81c3.555-3.788,5.766-7.729,5.633-12.1-.134-4.4-2.632-8.675-7.424-12.719Z" fill="#a8ad8b" fill-rule="evenodd"/>
    <path id="Tracé_300" data-name="Tracé 300" d="M461.968,947.515c-3.819-.175-5.841-.007-9.908.071a5.189,5.189,0,0,1,4.736-2.415c1.906,0,4.1.585,5.172,2.344Z" fill="#fff" fill-rule="evenodd"/>
    <path id="Tracé_301" data-name="Tracé 301" d="M477.639,1027.383l8.9-3.292V998.23l-8.9,2.64v26.513Z" fill="#232d22" fill-rule="evenodd"/>
    <path id="Tracé_302" data-name="Tracé 302" d="M461.52,1000.342a13.608,13.608,0,0,0-7,1.551v-3.758l-8.9,2.62v34.635l8.9-2.506v-7.238c.716.694,2.761,1.565,6.085,1.565,7.722,0,13.877-5.4,13.877-13.933,0-7.287-6.462-12.936-12.957-12.936Zm-1.926,18.144a4.909,4.909,0,1,1,5.112-4.905,4.956,4.956,0,0,1-5.112,4.905Z" fill="#232d22" fill-rule="evenodd"/>
    <path id="Tracé_303" data-name="Tracé 303" d="M399.344,1000.254a13.608,13.608,0,0,0-7.006,1.551v-3.759l-8.9,2.619V1035.3l8.9-2.507v-7.238c.716.693,2.762,1.565,6.085,1.565,7.722,0,13.877-5.4,13.877-13.933,0-7.287-6.461-12.936-12.956-12.936Zm-1.927,18.144a4.91,4.91,0,1,1,5.112-4.905,4.957,4.957,0,0,1-5.112,4.905Z" fill="#232d22" fill-rule="evenodd"/>
    <path id="Tracé_304" data-name="Tracé 304" d="M498.8,1013.574l-.021-7.229h5.4v-7.436h-5.4v-9.517l-8.913,2.537v21.5a14.018,14.018,0,0,0,14.249,13.842c.609,0,1.754-.023,1.754-.023v-8.434l-1.646.023a5.313,5.313,0,0,1-5.423-5.259Z" fill="#232d22" fill-rule="evenodd"/>
    <path id="Tracé_305" data-name="Tracé 305" d="M430.583,1020.49a4.662,4.662,0,0,1-5.756-3.178l.028,0,18.081-4.692a13.378,13.378,0,1,0,.069,2.079l-9.064,2.3a4.476,4.476,0,0,1-3.358,3.492Zm-3.754-14.061a4.57,4.57,0,0,1,5.641,3.115l-8.867,2.31a4.391,4.391,0,0,1,3.226-5.425Z" fill="#232d22" fill-rule="evenodd"/>
    <path id="Tracé_306" data-name="Tracé 306" d="M520.8,999.634a13.848,13.848,0,1,0,14.278,13.841A14.043,14.043,0,0,0,520.8,999.634Zm0,18.8a4.956,4.956,0,1,1,5.11-4.954,5.006,5.006,0,0,1-5.11,4.954Z" fill="#232d22" fill-rule="evenodd"/>
    <path id="Tracé_307" data-name="Tracé 307" d="M460,991.2c-.562.5-2.747,2.217-3.391,2.733-.948.761-1.886.037-.9-.8.592-.5,3.483-2.836,4.179-3.439,1.048-.908.043-2.075-1.026-1.24-.684.535-3.917,2.886-4.888,3.657-.942.748-1.7-.179-.781-.915.684-.548,3.688-2.774,4.339-3.294,1.01-.807.052-2.138-1.393-1.175-.889.592-2.9,1.906-4.47,2.957-1.648,1.1-2.388.63-3.282.008s-.37-1.107-.02-3.052c.247-1.366-1-1.646-1.758-.252a17.277,17.277,0,0,0-1.411,3.334c-.158.616-.989,4.981,1.145,7.989l10.517-3.01v1.314l3.891-3.524c1.183-1.075.154-2.09-.751-1.288Z" fill="#e6e8d3" fill-rule="evenodd"/>
    <path id="Tracé_308" data-name="Tracé 308" d="M535.831,996.067h2.046c1.077,0,1.274.7,1.274,1.009a.859.859,0,0,1-.627.85c.333.129.513.238.513.9,0,.521,0,.651.18.711v.094h-.936a2.117,2.117,0,0,1-.09-.72c0-.487-.033-.676-.659-.676h-.874v1.4h-.828l0-3.567Zm1.82,1.571c.44,0,.654-.134.654-.487,0-.188-.095-.466-.591-.467h-1.055v.953Z" fill="#232d22" fill-rule="evenodd"/>
    <path id="Tracé_309" data-name="Tracé 309" d="M537.424,1000.872a3.025,3.025,0,1,1,3.121-3.022,3.074,3.074,0,0,1-3.121,3.022Zm3.62-3.022a3.62,3.62,0,1,0-3.62,3.505,3.564,3.564,0,0,0,3.62-3.505Z" fill="#232d22" fill-rule="evenodd"/>
  </g>
</svg>
