<svg id="Icon-World-Y" xmlns="http://www.w3.org/2000/svg" width="90" height="90" viewBox="0 0 90 90">
  <g id="Icon" transform="translate(-263.153 -562.321)">
    <circle id="Ellipse_40" data-name="Ellipse 40" cx="45" cy="45" r="45" transform="translate(263.153 562.321)" fill="#fbec4f"/>
  </g>
  <g id="language" transform="translate(24 24)">
    <path id="Tracé_330" data-name="Tracé 330" d="M21,40A19,19,0,1,0,2,21,19,19,0,0,0,21,40Z" transform="translate(0 0)" fill="#2f392b" stroke="#fbec4f" stroke-width="3" fill-rule="evenodd"/>
    <path id="Tracé_331" data-name="Tracé 331" d="M15.6,37.2a23.344,23.344,0,0,0,7.6-17.1A23.344,23.344,0,0,0,15.6,3,23.344,23.344,0,0,0,8,20.1,23.344,23.344,0,0,0,15.6,37.2Z" transform="translate(5.4 0.9)" fill="none" stroke="#fbec4f" stroke-width="3" fill-rule="evenodd"/>
    <path id="Tracé_332" data-name="Tracé 332" d="M2.5,9H38.6" transform="translate(0.45 6.3)" fill="none" stroke="#fbec4f" stroke-linecap="round" stroke-width="3"/>
    <path id="Tracé_333" data-name="Tracé 333" d="M2.5,15H38.6" transform="translate(0.45 11.7)" fill="none" stroke="#fbec4f" stroke-linecap="round" stroke-width="3"/>
  </g>
</svg>
